<svg width="256" height="256" viewBox="0 0 256 256" fill="none" xmlns="http://www.w3.org/2000/svg">
<mask id="mask0_1_45" style="mask-type:alpha" maskUnits="userSpaceOnUse" x="34" y="34" width="188" height="188">
<path fill-rule="evenodd" clip-rule="evenodd" d="M47.0761 175.076C21.0767 130.383 36.2309 73.0756 80.9239 47.0762C125.617 21.0768 182.925 36.2309 208.924 80.924C234.923 125.617 219.769 182.925 175.076 208.924C130.383 234.923 73.0755 219.769 47.0761 175.076ZM169.237 198.887C164.736 201.506 160.088 203.648 155.353 205.329C145.62 208.784 135.518 210.29 125.553 209.983C124.253 209.943 122.956 209.873 121.661 209.771C111.795 208.997 102.129 206.447 93.1659 202.251C81.3828 196.736 70.812 188.379 62.5886 177.479C60.6244 174.875 58.7941 172.127 57.1132 169.237C48.6009 154.605 45.1246 138.429 46.153 122.718C46.3526 119.668 46.7219 116.636 47.2571 113.636C50.8629 93.4246 61.9972 74.6754 79.4716 61.8824C81.7912 60.1842 84.2225 58.591 86.7628 57.1132C100.495 49.1248 115.587 45.5716 130.377 46.0145C137.401 46.2249 144.357 47.3363 151.067 49.3018C155.165 50.5024 159.172 52.0215 163.046 53.8486C163.32 53.9777 163.593 54.1083 163.866 54.2404C167.129 55.8235 170.296 57.6266 173.341 59.6433C183.515 66.3807 192.336 75.5012 198.887 86.7629C199.421 87.6813 199.936 88.6057 200.43 89.5358C221.024 128.253 207.469 176.646 169.237 198.887Z" fill="#D9D9D9"/>
<path d="M106.138 76.9658C102.071 79.4663 98.1292 82.2876 94.3712 85.416C93.3922 81.0786 93.3216 77.0408 93.9874 73.3527C98.9891 69.9401 104.271 66.9003 109.707 64.2834C107.545 67.9743 106.245 72.2244 106.138 76.9658Z" fill="#D9D9D9"/>
<path d="M173.341 59.6433C183.515 66.3807 192.336 75.5012 198.887 86.7629C199.421 87.6813 199.936 88.6057 200.43 89.5358C182.812 57.5795 140.1 56.0854 106.138 76.9658C106.245 72.2244 107.545 67.9743 109.707 64.2834C127.283 55.8221 146.474 51.7808 163.046 53.8486C163.32 53.9777 163.593 54.1083 163.866 54.2404C167.129 55.8235 170.296 57.6266 173.341 59.6433Z" fill="#D9D9D9"/>
<path d="M130.377 46.0145C137.401 46.2249 144.357 47.3363 151.067 49.3018C136.347 44.9902 117.469 51.0324 109.707 64.2834C104.271 66.9003 98.9891 69.9401 93.9874 73.3527C95.4911 65.0224 100.752 58.4758 107.79 54.2898C118.173 47.8909 127.174 46.1068 130.377 46.0145Z" fill="#D9D9D9"/>
<path d="M158.541 166.279C159.543 169.619 160.074 172.825 160.214 175.87C140.445 178.46 118.991 174.543 104.052 165.739C89.3681 157.085 76.5681 139.082 70.5761 119.475C72.363 114.01 74.7815 108.706 77.9001 103.719C81.4509 126.088 92.9335 147.145 109.707 157.03C123.012 164.872 142.057 168.474 158.541 166.279Z" fill="#D9D9D9"/>
<path d="M173.036 173.167C172.738 170.115 172.048 166.913 170.891 163.588C189.294 157.909 204.884 145.02 209.945 124.371C210.146 128.992 209.954 133.605 209.381 138.16C204.828 156.738 190.469 167.963 173.036 173.167Z" fill="#D9D9D9"/>
<path fill-rule="evenodd" clip-rule="evenodd" d="M140.957 127.18C114.987 107.559 105.836 90.315 106.138 76.9658C102.071 79.4663 98.1292 82.2876 94.3712 85.416C97.1242 97.6131 107.06 112.179 128 128C145.984 141.588 155.076 154.731 158.541 166.279C162.738 165.721 166.881 164.826 170.891 163.588C167.032 152.5 157.977 140.039 140.957 127.18ZM173.036 173.167C174.636 189.595 164.859 201.683 155.353 205.329C145.62 208.784 135.518 210.29 125.553 209.983C129.479 209.934 134.01 209.001 142.396 206.149C151.536 202.644 160.925 191.336 160.214 175.87C164.601 175.296 168.905 174.4 173.036 173.167Z" fill="#D9D9D9"/>
<path d="M160.214 175.87C160.074 172.825 159.543 169.619 158.541 166.279C162.738 165.721 166.881 164.826 170.891 163.588C172.048 166.913 172.738 170.115 173.036 173.167C168.905 174.4 164.601 175.296 160.214 175.87Z" fill="#D9D9D9"/>
<path fill-rule="evenodd" clip-rule="evenodd" d="M86.7628 92.4387C83.3373 95.9428 80.3947 99.7293 77.9001 103.719C77.0384 98.2902 76.7458 92.8203 77.1094 87.467C77.1438 87.4315 77.1782 87.396 77.2127 87.3606C77.2512 87.3211 77.2896 87.2816 77.3282 87.2422C82.3275 82.1283 87.9539 77.4692 93.9874 73.3527C93.3216 77.0408 93.3922 81.0786 94.3712 85.416C91.7383 87.6078 89.1955 89.9503 86.7628 92.4387Z" fill="#D9D9D9"/>
<path d="M93.1659 202.251C81.3828 196.736 70.812 188.379 62.5886 177.479C53.4142 156.32 52.8909 124.949 67.0932 100.696C67.4748 106.953 68.6872 113.294 70.5761 119.475C59.6209 152.98 72.4077 192.539 93.1659 202.251Z" fill="#D9D9D9"/>
<path d="M79.4716 61.8824C81.7912 60.1842 84.2225 58.591 86.7628 57.1132C87.9202 56.4399 89.0872 55.7982 90.2629 55.1876C81.9826 64.205 77.9191 75.547 77.1094 87.467C73.1825 91.5216 69.8587 95.9741 67.0932 100.696C66.22 86.3764 69.6981 72.4921 79.3768 61.9519C79.4084 61.9287 79.44 61.9055 79.4716 61.8824Z" fill="#D9D9D9"/>
<path d="M67.0932 100.696C69.8587 95.9741 73.1825 91.5216 77.1094 87.467C76.7458 92.8203 77.0384 98.2902 77.9001 103.719C74.7815 108.706 72.363 114.01 70.5761 119.475C68.6872 113.294 67.4748 106.953 67.0932 100.696Z" fill="#D9D9D9"/>
</mask>
<g mask="url(#mask0_1_45)">
<g filter="url(#filter0_f_1_45)">
<path d="M64.1359 11.1556C40.9122 48.8942 36.5578 83.0041 64.1359 85.1813C91.7141 87.3585 149.048 47.4427 141.065 29.2992C133.081 11.1556 117.841 -9.16512 90.9884 -2.63345C69.5064 2.5919 64.1359 8.73651 64.1359 11.1556Z" fill="#1A1918"/>
<path d="M22.8762 101.78C28.6821 164.194 75.0221 223.798 104.777 212.186C134.533 200.574 170.202 85.0879 152.784 64.7671C141.02 51.0419 122.633 56.8507 101.875 63.4091C91.8988 66.5607 81.3752 69.8854 70.7751 71.2988C38.1168 75.6532 22.8762 82.1849 22.8762 101.78Z" fill="#1A1918"/>
<path fill-rule="evenodd" clip-rule="evenodd" d="M-0.455078 -17.874H256.458V239.039H-0.455078V-17.874ZM64.1359 11.1556C40.9122 48.8942 36.5578 83.0041 64.1359 85.1813C91.7141 87.3585 149.048 47.4427 141.065 29.2992C133.081 11.1556 117.841 -9.16512 90.9884 -2.63345C69.5064 2.5919 64.1359 8.73651 64.1359 11.1556ZM104.777 212.186C75.0221 223.798 28.6821 164.194 22.8762 101.78C22.8762 82.1849 38.1168 75.6532 70.7751 71.2988C81.3752 69.8854 91.8988 66.5607 101.875 63.4091C122.633 56.8507 141.02 51.0419 152.784 64.7671C170.202 85.0879 134.533 200.574 104.777 212.186ZM141.065 19.1388C113.486 71.3922 120.018 88.81 159.208 96.0674C198.398 103.325 226.702 75.7467 204.93 43.814C183.158 11.8814 154.854 -2.63345 141.065 19.1388ZM183.883 212.186C164.288 230.33 135.984 217.992 134.533 165.013C134.533 157.03 161.676 136.564 177.352 118.565C196.947 96.0674 210.736 112.034 238.314 149.047C259.267 177.167 241.679 188.531 223.425 200.325C217.653 204.055 188.591 207.827 183.883 212.186Z" fill="#1A1918"/>
<path d="M141.065 19.1388C113.486 71.3922 120.018 88.81 159.208 96.0674C198.398 103.325 226.702 75.7467 204.93 43.814C183.158 11.8814 154.854 -2.63345 141.065 19.1388Z" fill="#1A1918"/>
<path d="M134.533 165.013C135.984 217.992 164.288 230.33 183.883 212.186C188.591 207.827 217.653 204.055 223.425 200.325C241.679 188.531 259.267 177.167 238.314 149.047C210.736 112.034 196.947 96.0674 177.352 118.565C161.676 136.564 134.533 157.03 134.533 165.013Z" fill="#1A1918"/>
</g>
</g>
<defs>
<filter id="filter0_f_1_45" x="-98.1462" y="-115.565" width="452.295" height="452.295" filterUnits="userSpaceOnUse" color-interpolation-filters="sRGB">
<feFlood flood-opacity="0" result="BackgroundImageFix"/>
<feBlend mode="normal" in="SourceGraphic" in2="BackgroundImageFix" result="shape"/>
<feGaussianBlur stdDeviation="48.8456" result="effect1_foregroundBlur_1_45"/>
</filter>
</defs>
</svg>
