<svg width="902" height="325" viewBox="0 0 902 325" fill="none" xmlns="http://www.w3.org/2000/svg">
<path d="M407.014 237.116H391.504C391.398 237.116 391.311 237.03 391.311 236.923V179.57C391.311 179.394 391.536 179.319 391.655 179.448C425.791 216.386 462.272 194.139 454.892 160.848C444.448 113.745 408.599 140.141 406.002 145.074C405.988 145.101 405.984 145.124 405.984 145.155L405.982 181.144C405.982 181.28 405.848 181.373 405.725 181.316C403.363 180.218 396.041 175.071 391.337 166.945C391.32 166.916 391.311 166.882 391.311 166.848V123.51C391.311 123.404 391.398 123.318 391.504 123.318H405.792C405.898 123.318 405.984 123.404 405.984 123.51V133.405C405.984 133.608 406.306 133.723 406.437 133.568C411.802 127.191 454.604 100.667 468.344 152.372C480.519 198.189 434.481 228.396 407.536 204.722C407.41 204.611 407.207 204.695 407.207 204.862V236.923C407.207 237.03 407.121 237.116 407.014 237.116Z" fill="#F2F2F2"/>
<path d="M499.94 90.6306H484.43C484.324 90.6306 484.237 90.7169 484.237 90.8234V209.079C484.237 209.185 484.324 209.272 484.43 209.272H499.94C500.047 209.272 500.133 209.185 500.133 209.079V90.8234C500.133 90.7169 500.047 90.6306 499.94 90.6306Z" fill="#F2F2F2"/>
<path d="M544.152 170.532C529.479 176.585 523.365 188.691 533.759 195.955C542.598 202.545 557.239 202.86 572.275 194.689C577.491 191.855 582.755 187.999 587.841 183.029C587.963 182.91 588.17 182.996 588.17 183.167V209.079C588.17 209.185 588.084 209.272 587.978 209.272H572.467C572.361 209.272 572.275 209.185 572.275 209.079V203.577C572.275 203.423 572.105 203.33 571.975 203.411C570.52 204.326 567.033 206.263 562.493 208.061C556.379 210.482 523.365 216.536 516.029 195.955C509.915 176.585 523.365 165.689 538.038 159.636C549.609 154.863 567.278 156.755 572.074 157.197C572.187 157.207 572.275 157.111 572.274 156.998C572.122 129.377 542.903 130.616 533.147 143.898L529.537 148.664C529.5 148.712 529.443 148.741 529.383 148.741H528.283C528.265 148.741 528.248 148.738 528.231 148.734C525.384 147.925 519.037 145.614 516.085 142.743C516.048 142.707 516.027 142.665 516.034 142.614C516.229 141.127 521.718 131.66 531.924 124.528C540.221 118.73 558.744 118.139 572.275 123.534C581.344 127.15 588.17 133.457 588.17 142.687V170.48C588.17 170.514 588.162 170.547 588.145 170.576C584.564 176.734 576.052 181.182 572.576 183.452C572.447 183.537 572.275 183.444 572.275 183.29V165.865C572.275 165.766 572.204 165.683 572.104 165.675C567.496 165.296 555.744 165.749 544.152 170.532Z" fill="#F2F2F2"/>
<path d="M852.282 170.532C837.609 176.585 831.496 188.691 841.89 195.955C850.728 202.545 865.369 202.86 880.405 194.689C885.622 191.855 890.886 187.999 895.972 183.029C896.094 182.91 896.301 182.996 896.301 183.167V209.079C896.301 209.185 896.215 209.272 896.108 209.272H880.598C880.492 209.272 880.405 209.185 880.405 209.079V203.577C880.405 203.423 880.235 203.33 880.105 203.411C878.651 204.326 875.164 206.263 870.623 208.061C864.51 210.482 831.496 216.536 824.159 195.955C818.046 176.585 831.496 165.689 846.169 159.636C857.739 154.863 875.409 156.755 880.205 157.197C880.318 157.207 880.405 157.111 880.405 156.998C880.252 129.377 851.034 130.616 841.278 143.898L837.667 148.664C837.631 148.712 837.574 148.741 837.514 148.741H836.413C836.396 148.741 836.379 148.738 836.362 148.734C833.515 147.925 827.167 145.614 824.216 142.743C824.179 142.707 824.158 142.665 824.165 142.614C824.36 141.127 829.849 131.66 840.055 124.528C848.352 118.73 866.875 118.139 880.405 123.534C889.475 127.15 896.301 133.457 896.301 142.687V170.48C896.301 170.514 896.292 170.547 896.275 170.576C892.694 176.734 884.183 181.182 880.707 183.452C880.578 183.537 880.405 183.444 880.405 183.29V165.865C880.405 165.766 880.334 165.683 880.235 165.675C875.626 165.296 863.875 165.749 852.282 170.532Z" fill="#F2F2F2"/>
<path d="M659.266 146.188L668.793 139.113C668.842 139.077 668.871 139.02 668.87 138.959C668.611 122.053 600.398 107.652 600.398 145.11C600.398 177.797 654.198 165.691 654.198 188.692C654.198 198.353 618.915 210.422 605.389 186.45C605.335 186.354 605.21 186.318 605.117 186.376L595.598 192.267C595.541 192.302 595.507 192.365 595.507 192.432C595.731 216.562 670.094 224.954 670.094 187.481C670.094 154.794 615.071 165.689 615.071 142.687C615.071 133.029 645.473 122.166 658.979 146.123C659.037 146.224 659.172 146.258 659.266 146.188Z" fill="#F2F2F2"/>
<path d="M699.247 209.272H683.737C683.63 209.272 683.544 209.185 683.544 209.079V123.511C683.544 123.405 683.63 123.319 683.737 123.319H699.247C699.353 123.319 699.44 123.405 699.44 123.511V134.832C699.44 135.019 699.689 135.084 699.801 134.935C721.362 105.986 750.873 128.515 753.139 136.204C753.187 136.368 753.417 136.393 753.519 136.256C775.512 106.573 808.225 128.163 809.484 135.41C809.486 135.421 809.486 135.43 809.486 135.441V147.531V209.079C809.486 209.185 809.4 209.272 809.294 209.272H793.783C793.677 209.272 793.591 209.185 793.591 209.079V147.531C793.591 124.528 754.463 137.846 754.463 147.531V209.079C754.463 209.185 754.377 209.272 754.27 209.272H738.76C738.654 209.272 738.567 209.185 738.567 209.079V147.531C738.567 124.528 699.44 137.846 699.44 147.531V209.079C699.44 209.185 699.353 209.272 699.247 209.272Z" fill="#F2F2F2"/>
<mask id="mask0_2_17" style="mask-type:alpha" maskUnits="userSpaceOnUse" x="5" y="5" width="316" height="316">
<path fill-rule="evenodd" clip-rule="evenodd" d="M27.0731 242.073C-16.5977 167.003 8.85656 70.744 83.9269 27.0731C158.997 -16.5978 255.256 8.85654 298.927 83.9269C342.598 158.997 317.143 255.256 242.073 298.927C167.003 342.598 70.744 317.143 27.0731 242.073ZM232.266 282.068C224.704 286.466 216.898 290.064 208.944 292.888C192.597 298.691 175.628 301.222 158.89 300.707C156.706 300.639 154.527 300.52 152.353 300.35C135.78 299.05 119.546 294.766 104.49 287.719C84.6977 278.455 66.9421 264.417 53.1293 246.109C49.83 241.736 46.7557 237.119 43.9323 232.266C29.6344 207.688 23.7953 180.517 25.5226 154.127C25.8579 149.005 26.4783 143.912 27.3772 138.874C33.4338 104.924 52.1359 73.4311 81.4874 51.943C85.3837 49.0906 89.4676 46.4144 93.7344 43.9323C116.8 30.5142 142.149 24.5459 166.993 25.2899C178.791 25.6432 190.474 27.5101 201.745 30.8116C208.629 32.8281 215.359 35.3798 221.867 38.4487C222.327 38.6655 222.786 38.8849 223.243 39.1069C228.725 41.766 234.043 44.7946 239.159 48.182C256.248 59.4986 271.064 74.8184 282.068 93.7344C282.965 95.277 283.829 96.8298 284.66 98.392C319.252 163.424 296.482 244.711 232.266 282.068Z" fill="#D9D9D9"/>
<path d="M126.278 77.2784C119.447 81.4784 112.826 86.2174 106.514 91.472C104.87 84.1866 104.751 77.4044 105.869 71.2095C114.271 65.4774 123.142 60.3716 132.273 55.9759C128.641 62.1754 126.458 69.3143 126.278 77.2784Z" fill="#D9D9D9"/>
<path d="M239.159 48.182C256.248 59.4986 271.064 74.8184 282.068 93.7344C282.965 95.277 283.829 96.8298 284.66 98.392C255.068 44.7155 183.324 42.2059 126.278 77.2784C126.458 69.3143 128.641 62.1754 132.273 55.9759C161.795 41.7635 194.031 34.9754 221.867 38.4487C222.327 38.6655 222.786 38.8849 223.243 39.1069C228.725 41.766 234.043 44.7946 239.159 48.182Z" fill="#D9D9D9"/>
<path d="M166.993 25.2899C178.791 25.6432 190.474 27.5101 201.745 30.8116C177.021 23.5694 145.311 33.7184 132.273 55.9759C123.142 60.3716 114.271 65.4774 105.869 71.2095C108.395 57.2172 117.232 46.2209 129.053 39.1898C146.493 28.4416 161.613 25.4448 166.993 25.2899Z" fill="#D9D9D9"/>
<path d="M214.299 227.297C215.982 232.907 216.875 238.292 217.11 243.407C183.904 247.757 147.868 241.177 122.775 226.389C98.1105 211.853 76.6105 181.614 66.5458 148.68C69.5472 139.5 73.6096 130.591 78.8478 122.215C84.8122 159.788 104.099 195.157 132.273 211.761C154.623 224.932 186.611 230.983 214.299 227.297Z" fill="#D9D9D9"/>
<path d="M238.646 238.867C238.146 233.74 236.987 228.362 235.043 222.777C265.955 213.237 292.142 191.589 300.642 156.905C300.979 164.666 300.656 172.414 299.695 180.066C292.047 211.27 267.928 230.125 238.646 238.867Z" fill="#D9D9D9"/>
<path fill-rule="evenodd" clip-rule="evenodd" d="M184.763 161.622C141.142 128.665 125.772 99.7008 126.278 77.2784C119.447 81.4784 112.826 86.2174 106.514 91.472C111.138 111.959 127.827 136.425 163 163C193.208 185.823 208.479 207.9 214.299 227.297C221.349 226.359 228.308 224.855 235.043 222.777C228.561 204.153 213.351 183.222 184.763 161.622ZM238.646 238.867C241.334 266.461 224.912 286.764 208.944 292.888C192.597 298.691 175.628 301.222 158.89 300.707C165.485 300.624 173.096 299.057 187.181 294.266C202.533 288.379 218.304 269.385 217.11 243.407C224.478 242.442 231.707 240.938 238.646 238.867Z" fill="#D9D9D9"/>
<path d="M217.11 243.407C216.875 238.292 215.982 232.907 214.299 227.297C221.349 226.359 228.308 224.855 235.043 222.777C236.987 228.362 238.146 233.74 238.646 238.867C231.707 240.938 224.478 242.442 217.11 243.407Z" fill="#D9D9D9"/>
<path fill-rule="evenodd" clip-rule="evenodd" d="M93.7344 103.268C87.9806 109.154 83.038 115.514 78.8478 122.215C77.4005 113.097 76.909 103.909 77.5198 94.9171C77.5775 94.8575 77.6354 94.7979 77.6933 94.7384C77.7578 94.6721 77.8224 94.6058 77.8872 94.5396C86.2845 85.9498 95.735 78.124 105.869 71.2095C104.751 77.4044 104.87 84.1866 106.514 91.472C102.092 95.1536 97.8205 99.0883 93.7344 103.268Z" fill="#D9D9D9"/>
<path d="M104.49 287.719C84.6977 278.455 66.9421 264.417 53.1293 246.109C37.7192 210.569 36.8403 157.875 60.6957 117.138C61.3367 127.648 63.373 138.298 66.5458 148.68C48.1446 204.959 69.6223 271.406 104.49 287.719Z" fill="#D9D9D9"/>
<path d="M81.4874 51.943C85.3837 49.0906 89.4676 46.4144 93.7344 43.9323C95.6784 42.8014 97.6387 41.7233 99.6135 40.6978C85.7052 55.8442 78.8798 74.8952 77.5198 94.9171C70.9237 101.728 65.3408 109.206 60.6957 117.138C59.2289 93.0852 65.0711 69.7639 81.3282 52.0597C81.3813 52.0207 81.4343 51.9819 81.4874 51.943Z" fill="#D9D9D9"/>
<path d="M60.6957 117.138C65.3408 109.206 70.9237 101.728 77.5198 94.9171C76.909 103.909 77.4005 113.097 78.8478 122.215C73.6096 130.591 69.5472 139.5 66.5458 148.68C63.373 138.298 61.3367 127.648 60.6957 117.138Z" fill="#D9D9D9"/>
</mask>
<g mask="url(#mask0_2_17)">
<g filter="url(#filter0_f_2_17)">
<path d="M55.7283 -33.262C16.7197 30.127 9.40559 87.4209 55.7283 91.078C102.051 94.735 198.354 27.689 184.944 -2.78653C171.535 -33.262 145.936 -67.3946 100.832 -56.4234C64.7491 -47.6464 55.7283 -37.3254 55.7283 -33.262Z" fill="#E8E8E8"/>
<path d="M-13.5752 118.958C-3.82301 223.794 74.0136 323.911 123.993 304.406C173.973 284.902 233.886 90.921 204.629 56.7885C184.869 33.7345 153.986 43.4913 119.117 54.5074C102.361 59.8011 84.6849 65.3857 66.8801 67.7596C12.0242 75.0738 -13.5752 86.0449 -13.5752 118.958Z" fill="#C1C1C1"/>
<path fill-rule="evenodd" clip-rule="evenodd" d="M-52.7644 -82.0228H378.769V349.51H-52.7644V-82.0228ZM55.7283 -33.262C16.7197 30.127 9.40559 87.4209 55.7283 91.078C102.051 94.735 198.354 27.689 184.944 -2.78653C171.535 -33.262 145.936 -67.3946 100.832 -56.4234C64.7491 -47.6464 55.7283 -37.3254 55.7283 -33.262ZM123.993 304.406C74.0136 323.911 -3.82301 223.794 -13.5752 118.958C-13.5752 86.0449 12.0242 75.0738 66.8801 67.7596C84.6849 65.3857 102.361 59.8011 119.117 54.5074C153.986 43.4913 184.869 33.7345 204.629 56.7885C233.886 90.921 173.973 284.902 123.993 304.406ZM184.944 -19.8528C138.622 67.9166 149.593 97.1731 215.42 109.363C281.247 121.553 328.789 75.2307 292.218 21.5939C255.648 -32.043 208.106 -56.4234 184.944 -19.8528ZM256.867 304.406C223.953 334.882 176.411 314.159 173.973 225.17C173.973 211.761 219.565 177.385 245.895 147.153C278.809 109.363 301.97 136.182 348.293 198.352C383.487 245.586 353.945 264.674 323.285 284.484C313.589 290.748 264.774 297.085 256.867 304.406Z" fill="white"/>
<path d="M184.944 -19.8528C138.622 67.9166 149.593 97.1731 215.42 109.363C281.247 121.553 328.789 75.2307 292.218 21.5939C255.648 -32.043 208.106 -56.4234 184.944 -19.8528Z" fill="#E3E3E3"/>
<path d="M173.973 225.17C176.411 314.159 223.953 334.882 256.867 304.406C264.774 297.085 313.589 290.748 323.285 284.484C353.945 264.674 383.487 245.586 348.293 198.352C301.97 136.182 278.809 109.363 245.895 147.153C219.565 177.385 173.973 211.761 173.973 225.17Z" fill="#C1C1C1"/>
</g>
</g>
<defs>
<filter id="filter0_f_2_17" x="-126.007" y="-155.266" width="578.018" height="578.018" filterUnits="userSpaceOnUse" color-interpolation-filters="sRGB">
<feFlood flood-opacity="0" result="BackgroundImageFix"/>
<feBlend mode="normal" in="SourceGraphic" in2="BackgroundImageFix" result="shape"/>
<feGaussianBlur stdDeviation="36.6214" result="effect1_foregroundBlur_2_17"/>
</filter>
</defs>
</svg>
